<svg xmlns="http://www.w3.org/2000/svg" width="1207" height="1159"><path fill="#0266a5" d="M724 123c5.202 1.518 9.674 3.806 14.375 6.438l2.384 1.332c15.76 8.957 30.64 19.868 43.971 32.144a251 251 0 0 0 6.395 5.649c6.874 6.02 12.89 12.475 18.602 19.609a233 233 0 0 0 4.421 5.344c10.99 12.933 19.98 27.481 27.852 42.484l1.08 2.012c12.068 22.74 19.793 48.653 23.92 73.988l.483 2.672c5.472 30.84 4.804 65.516-.483 96.328l-.504 3.137c-10.915 67.096-46.849 127.942-98.445 172.093-2.327 2.008-4.593 4.075-6.864 6.145-4.243 3.825-8.596 7.476-13.039 11.066a520 520 0 0 0-6.921 5.711C730.438 618.167 719.35 626.707 708 635l-2.4 1.765c-27.41 20.06-57.666 36.308-88.6 50.235l-3.484 1.625-3.203 1.438-2.7 1.222c-6.21 1.7-12.236-1.553-17.922-3.879l-2.813-1.133q-3.046-1.228-6.09-2.464c-4.455-1.808-8.916-3.603-13.376-5.398l-7.193-2.898c-13.29-5.356-26.608-10.638-39.928-15.917q-5.002-1.981-10.003-3.966l-14.196-5.629a115708 115708 0 0 1-47.149-18.705q-31.046-12.32-62.09-24.649-31.832-12.639-63.666-25.272l-1.955-.776-44.962-17.841-1.971-.782-9.856-3.911-17.725-7.034-9.843-3.906-3.937-1.562-7.875-3.125-1.97-.782-43.213-17.149-28.361-11.25-18.457-7.32-2-.793A20239 20239 0 0 1 63 478l.083 2.698c.697 23.007 1.177 46.01 1.45 69.026l.094 7.713c.449 36.521.485 73.04.373 109.563l2.874.91c5.136 1.791 8.597 5.345 11.235 10.082 2.372 5.75 2.694 10.68.641 16.633-2.47 4.763-4.682 7.919-9.39 10.52L67 707c-1.945 20.706 2.644 35.454 11.5 54 1.118 2.414 2.22 4.834 3.324 7.254a896 896 0 0 0 4.67 10.106l1.395 2.96 1.238 2.602C90 786 90 786 90 788H22c.712-4.274 1.28-7.13 2.842-10.976l1.142-2.843 1.235-3.02 2.574-6.409q2.03-5.024 4.069-10.046c1.313-3.242 2.616-6.487 3.92-9.733l1.234-3.015c2.716-6.78 3.983-12.928 4.3-20.235l.127-2.803.12-2.857.13-2.94q.159-3.561.307-7.123l-2.305-.86c-4.529-1.916-7.68-4.752-10.57-8.702-2.036-6.223-2.078-12.68.063-18.875C35.018 672.146 39.17 668.97 45 666h2l-.087-2.51c-.76-22.484-1.107-44.952-1.216-67.448q-.036-6.632-.076-13.264-.074-12.466-.138-24.933-.076-14.232-.16-28.464Q45.154 500.191 45 471L0 453c2.73-2.73 3.866-3.569 7.266-4.912.87-.35 1.742-.698 2.639-1.057l2.89-1.128 3.052-1.214c3.347-1.33 6.7-2.648 10.051-3.966l7.043-2.793a9893 9893 0 0 1 16.737-6.619c10.467-4.13 20.928-8.274 31.388-12.42l7.19-2.847c13.554-5.366 27.078-10.78 40.524-16.41 12.163-5.07 24.412-9.923 36.658-14.79l3.484-1.386q14.355-5.704 28.712-11.4 12.465-4.948 24.929-9.902l3.49-1.387c13.264-5.276 26.498-10.607 39.667-16.116 12.126-5.049 24.336-9.887 36.542-14.739l3.465-1.378q14.28-5.674 28.564-11.341a42535 42535 0 0 0 28.272-11.23c13.199-5.25 26.377-10.542 39.496-15.988 14.06-5.838 28.192-11.494 42.34-17.118l3.424-1.361q14.035-5.577 28.073-11.145 12.19-4.836 24.377-9.681l3.429-1.363c20.183-8.029 40.3-16.21 60.388-24.474 36.888-15.163 36.888-15.163 44.118-12.775l3.53 1.518 1.99.843q2.155.916 4.305 1.845c4.011 1.732 8.037 3.427 12.06 5.129l2.627 1.114c10.82 4.585 21.708 9 32.592 13.429q6.304 2.567 12.606 5.136l3.112 1.268c9.704 3.955 19.401 7.928 29.095 11.908l4.715 1.935q9.65 3.96 19.297 7.926C761.02 275.177 761.02 275.177 788 286c-3.567-59.56-21.257-112.476-60.598-157.953C724 124.101 724 124.101 724 123M515 465c-17.822 21.647-27.157 49.512-24.691 77.504 3.494 29.657 17.127 55.823 40.339 74.847 23.534 18.487 52.479 28.158 82.477 24.962 29.786-3.676 57.504-18.842 76.34-42.395C699.535 586.584 706.897 572.204 711 556l.742-2.86c5.696-26.995-.883-55.356-15.722-78.226-18.354-26.484-44.67-44.257-76.556-50.087C579.337 418.573 541.45 435.065 515 465"/><path fill="#0266a5" d="M233 586c3.624.576 6.881 1.18 10.275 2.584l2.42.991 2.606 1.09 2.8 1.15q3.018 1.243 6.034 2.493c5.503 2.28 11.015 4.541 16.525 6.805l3.518 1.448c13.332 5.482 26.701 10.867 40.072 16.251l14.469 5.833 3.49 1.406a14321 14321 0 0 1 31.754 12.847l10.756 4.365q11.234 4.558 22.469 9.112l2.293.93a65709 65709 0 0 0 40.194 16.277q18.416 7.453 36.825 14.918a79700 79700 0 0 0 43.538 17.641A6419 6419 0 0 0 555 715c-1.461 7.13-3.467 13.973-5.684 20.902l-2.282 7.224-1.219 3.848C516.513 835.34 516.513 835.34 497 926l-.542 3.79c-1.448 10.75-1.82 21.371-1.77 32.21l.006 2.576c.129 31.759 5.78 62.445 16.306 92.424l.749 2.167c11.906 34.181 31.187 70.56 57.509 96.017C571 1157 571 1157 571 1159c-43.635-13.67-86.342-49.505-113-86l-2.574-3.453c-6.039-8.193-11.373-16.718-16.426-25.547l-1.988-3.402C420.769 1011.66 413.737 979.556 409 947l-.5-3.309c-5.2-35.836-5.152-74.92.5-110.691l.52-3.445c5.195-33.767 14.63-67.28 28.48-98.555-7.476 5.216-14.399 10.714-21 17l-1.688 1.59c-9.904 9.376-18.366 19.339-26.312 30.41l-1.338 1.809c-20.834 28.227-27.306 59.463-32.239 93.307-.772 5.267-1.566 10.53-2.357 15.794-1.704 11.361-3.39 22.725-5.066 34.09-6.306-.606-11.865-2.522-17.809-4.656l-3.21-1.135c-3.475-1.23-6.947-2.47-10.418-3.709l-7.236-2.567q-7.454-2.643-14.906-5.297a6005 6005 0 0 0-21.35-7.538l-9.764-3.438q-3.098-1.09-6.194-2.176a4504 4504 0 0 1-8.633-3.043l-2.521-.881c-3.988-1.414-7.884-2.933-11.745-4.667l-2.406-1.078L230 884a386610 386610 0 0 1 .817-103.942l.27-34.511q.137-17.824.28-35.647.082-9.961.157-19.923A7630 7630 0 0 1 233 586m741-1q.046 41.594.063 83.188v3.108c.023 54.841-.035 109.678-.563 164.516l-.036 3.77q-.21 21.71-.464 43.418c-4.946 2.526-9.866 4.844-15.03 6.9l-1.999.799q-3.271 1.304-6.545 2.602-2.353.937-4.705 1.877a10082 10082 0 0 1-10.098 4.022c-8.197 3.26-16.39 6.532-24.582 9.802l-8.495 3.39c-17.04 6.798-34.06 13.642-51.076 20.5l-21.189 8.538-2.466.993a85728 85728 0 0 1-71.109 28.6l-10.365 4.166a40939 40939 0 0 1-71.847 28.818l-2.33.931-4.385 1.75a578 578 0 0 0-8.934 3.63l-2.684 1.117-2.196.935C651 1013 651 1013 647 1013c-6.36-56.155 3.965-107.269 28-158l1.533-3.237C683.89 836.364 692.187 821.608 701 807l1.709-2.85c6.497-10.81 13.246-21.275 20.892-31.307a617 617 0 0 0 4.434-5.933c7.92-10.681 16.265-20.946 24.88-31.073a520 520 0 0 0 8.585-10.4c4.125-5.07 8.496-9.869 12.938-14.66 2.666-2.89 5.258-5.832 7.835-8.8C785.8 697.94 789.402 693.972 793 690l2.598-2.883c8.943-9.88 18.13-19.6 28.402-28.117.535-.45 1.07-.898 1.623-1.361C862.703 626.594 923.587 584.193 974 585m-44-240c7.484 2.095 14.671 4.71 21.89 7.578l3.41 1.343q4.536 1.788 9.07 3.585 4.77 1.886 9.54 3.765 9.39 3.705 18.777 7.419 6.742 2.665 13.485 5.326l13.26 5.235a22367 22367 0 0 0 41.443 16.312l3.579 1.405L1090 407q14.563 5.718 29.125 11.438l3.55 1.394q24.492 9.619 48.965 19.29A8732 8732 0 0 0 1207 453v2c-22.732 10.31-45.862 19.649-69 29l-3.241 1.31A5321 5321 0 0 1 1031 526l-2.745 1.044c-37.674 14.318-75.57 28.03-113.653 41.224l-2.598.9q-2.37.822-4.741 1.64l-2.153.744-2.064.71c-1.416.51-2.82 1.055-4.212 1.625-3.757 1.529-5.958 2.38-9.834 1.113l1.003-1.563C913.036 537.362 929.154 499.41 936 457l.648-3.875c4.977-34.04 2.31-69.555-6.132-102.832C930 348 930 348 930 345M602 0h2l.93 1.953 4.258 8.922 1.462 3.07c2.743 5.742 5.536 11.447 8.46 17.098C620 33 620 33 620 35l2.184.078c12.409.656 24.579 2.848 36.816 4.922-3.478 4.318-7.116 8.086-11.25 11.785l-2.84 2.611a253 253 0 0 1-5.914 5.25c-5.353 4.93-5.353 4.93-7.246 11.688.511 3.649 1.322 7.102 2.25 10.666q.572 3.413 1.07 6.836.525 3.27 1.055 6.539c.182 1.13.364 2.258.55 3.422L638 107c-4.077-1.527-7.826-3.445-11.656-5.512l-3.848-2.045a824 824 0 0 1-6.003-3.22 612 612 0 0 0-5.837-3.11l-3.506-1.881c-3.468-1.356-4.698-1.458-8.15-.232-1.774.8-3.52 1.667-5.238 2.582l-2.987 1.576-3.087 1.654q-3.025 1.606-6.051 3.208l-2.901 1.541c-3.553 1.868-7.137 3.663-10.736 5.439.394-9.154 1.977-18.007 3.716-26.989l.542-2.913.504-2.61c.28-2.929.226-4.696-.762-7.488a81 81 0 0 0-5.785-6.14l-1.745-1.72a954 954 0 0 0-5.533-5.39 2778 2778 0 0 1-5.543-5.432q-1.722-1.69-3.456-3.369A241 241 0 0 1 546 41v-1q6.642-1.078 13.287-2.136 2.258-.36 4.513-.728 3.257-.527 6.516-1.042l2.012-.332c4.261-.666 8.363-.86 12.672-.762l.799-2.583c1.24-3.53 2.746-6.75 4.424-10.093.305-.61.61-1.221.926-1.85q.961-1.919 1.928-3.835 1.484-2.942 2.956-5.891c4.82-9.6 4.82-9.6 5.967-10.748"/></svg>