<svg xmlns="http://www.w3.org/2000/svg" viewBox="0 0 512 512" role="img" aria-labelledby="logoTitle">
  <title id="logoTitle">Mabini Classroom logo</title>
  <g fill="#0A6FAE">
    <path d="M256 78 16 180l240 98 240-98z"/>
    <path d="M31 188v93a24 24 0 0 0 0 47v24h20v-24a24 24 0 0 0 0-47v-101z"/>
    <path d="m98 234 117 49-26 115-92-34z"/>
    <path d="m300 283 114-49v163l-132 48c-5-56 11-114 48-162z"/>
    <circle cx="256" cy="220" r="45"/>
    <path d="M327 111c73 38 117 106 117 183 0 84-53 159-132 188-8 3-16-6-12-14l7-16c16-36 20-77 11-116-4-18 4-37 20-47 48-33 78-88 78-149 0-14-2-27-6-40-2-7 5-13 12-9z"/>
    <path d="M244 296c-63 5-112 57-112 120 0 64 49 117 112 123-43-31-64-87-50-140 8-31 24-58 46-80 8-8 3-24-9-23z"/>
    <path d="m256 28 9 22h23l-18 13 7 22-21-13-21 13 7-22-18-13h23z"/>
  </g>
</svg>