<?xml version="1.0" encoding="UTF-8"?>
<svg version="1.1" xmlns="http://www.w3.org/2000/svg" width="1207" height="1159">
<path d="M0 0 C5.20194119 1.51791659 9.67449289 3.80574399 14.375 6.4375 C15.16156982 6.87707031 15.94813965 7.31664062 16.75854492 7.76953125 C32.51858401 16.72736983 47.39863405 27.63757498 60.73046875 39.9140625 C62.8276005 41.84154676 64.96376355 43.70761357 67.125 45.5625 C73.99923042 51.58261762 80.01534149 58.03772179 85.7265625 65.171875 C87.17511102 66.97384945 88.64694922 68.75751872 90.1484375 70.515625 C101.13770683 83.4488445 110.1277405 97.99699241 118 113 C118.35626465 113.66386719 118.7125293 114.32773438 119.07958984 115.01171875 C131.14848789 137.75257644 138.87337277 163.66525104 143 189 C143.15936035 189.88171875 143.3187207 190.7634375 143.48291016 191.671875 C148.95549198 222.51221251 148.28715633 257.18774349 143 288 C142.75056641 289.55291748 142.75056641 289.55291748 142.49609375 291.13720703 C131.58127154 358.23304467 95.64728433 419.07875168 44.05078125 463.23046875 C41.72433417 465.23786023 39.45807314 467.30466638 37.1875 469.375 C32.94423992 473.20036325 28.59140503 476.8509409 24.1484375 480.44140625 C21.82188546 482.32262409 19.52033191 484.23129752 17.2265625 486.15234375 C6.43817446 495.16717445 -4.64862507 503.70662735 -16 512 C-17.18819336 512.87374268 -17.18819336 512.87374268 -18.40039062 513.76513672 C-45.81042677 533.82471106 -76.06562611 550.072836 -107 564 C-108.14984375 564.53625 -109.2996875 565.0725 -110.484375 565.625 C-112.06992188 566.3365625 -112.06992188 566.3365625 -113.6875 567.0625 C-114.57824219 567.46597656 -115.46898437 567.86945312 -116.38671875 568.28515625 C-122.59745365 569.98405683 -128.6228026 566.7323973 -134.30859375 564.40625 C-135.23706116 564.0323262 -136.16552856 563.6584024 -137.12213135 563.27314758 C-139.15322724 562.45445929 -141.18322214 561.63303554 -143.21224976 560.80923462 C-147.66732102 559.0007754 -152.12790554 557.20610137 -156.58821106 555.41059875 C-158.98592058 554.44532939 -161.38336524 553.47940188 -163.78056335 552.51286316 C-177.07023904 547.15705894 -190.38883672 541.87467618 -203.7094574 536.59641266 C-207.04383755 535.27497357 -210.37786522 533.9526458 -213.71191406 532.63037109 C-218.44399732 530.75371281 -223.1761695 528.87727915 -227.90847397 527.00117874 C-240.37007161 522.06081504 -252.83006781 517.11641691 -265.28994751 512.17172241 C-268.54551345 510.87975606 -271.8011108 509.58786891 -275.05671787 508.2960062 C-295.75489207 500.0827016 -316.45148865 491.86542664 -337.14769745 483.64717102 C-358.36833491 475.22068543 -379.58978968 466.79626365 -400.8125 458.375 C-401.78061111 457.9908493 -401.78061111 457.9908493 -402.76828003 457.59893799 C-408.61744527 455.27797257 -414.46662741 452.95704976 -420.31582642 450.63616943 C-429.45410985 447.01022514 -438.59231756 443.38409007 -447.73046875 439.7578125 C-448.38073847 439.49976711 -449.03100819 439.24172173 -449.70098305 438.97585678 C-452.98647794 437.67207852 -456.27197155 436.36829706 -459.5574646 435.06451416 C-465.46549077 432.72003266 -471.37352819 430.37557951 -477.28156471 428.03112411 C-480.56271027 426.72908389 -483.8438551 425.42704186 -487.125 424.125 C-488.4375 423.60416666 -489.75 423.08333332 -491.0625 422.5625 C-493.6875 421.52083333 -496.3125 420.47916667 -498.9375 419.4375 C-499.58719474 419.17968467 -500.23688948 418.92186934 -500.90627193 418.65624142 C-502.21869893 418.13543697 -503.53112582 417.61463225 -504.84355259 417.09382725 C-508.12591865 415.79129962 -511.40828663 414.48877685 -514.69065857 413.18626404 C-520.58358357 410.84782456 -526.47649552 408.50935224 -532.36933422 406.1706953 C-535.63293192 404.87549132 -538.89654108 403.58031622 -542.16015625 402.28515625 C-542.80704973 402.02843706 -543.45394321 401.77171787 -544.12043953 401.50721931 C-553.57355461 397.7558257 -563.02733487 394.00611198 -572.48145866 390.25726128 C-578.63360945 387.81768628 -584.785606 385.37772245 -590.9375 382.9375 C-591.59759693 382.67566547 -592.25769386 382.41383095 -592.93779373 382.14406204 C-615.6419557 373.13779652 -638.32859685 364.08840727 -661 355 C-660.97265274 355.89023865 -660.94530548 356.78047729 -660.91712952 357.69769287 C-660.22015161 380.70483357 -659.73975535 403.70759798 -659.46757126 426.72359085 C-659.43696563 429.29489426 -659.40523282 431.86618197 -659.37332153 434.43746948 C-658.92444061 470.95845499 -658.88769161 507.47685349 -659 544 C-657.57723755 544.45028564 -657.57723755 544.45028564 -656.12573242 544.90966797 C-650.98968373 546.70124756 -647.52863252 550.25492047 -644.890625 554.9921875 C-642.51934072 560.74143335 -642.19739823 565.67245488 -644.25 571.625 C-646.71949575 576.38759895 -648.9323189 579.54401334 -653.640625 582.14453125 C-654.74921875 582.75683594 -655.8578125 583.36914062 -657 584 C-658.94542533 604.70609223 -654.35565977 619.45402095 -645.5 638 C-644.38207846 640.41357397 -643.27932593 642.83368035 -642.17578125 645.25390625 C-640.63534434 648.63046109 -639.0890056 652.00245954 -637.50671387 655.35961914 C-637.04623657 656.33664795 -636.58575928 657.31367676 -636.11132812 658.3203125 C-635.7027356 659.17898926 -635.29414307 660.03766602 -634.87316895 660.92236328 C-634 663 -634 663 -634 665 C-656.44 665 -678.88 665 -702 665 C-701.28771761 660.72630565 -700.71979073 657.86908401 -699.15820312 654.02368164 C-698.59256653 652.61675804 -698.59256653 652.61675804 -698.01550293 651.18141174 C-697.40454773 649.68589027 -697.40454773 649.68589027 -696.78125 648.16015625 C-695.923115 646.02411348 -695.06504405 643.88804498 -694.20703125 641.75195312 C-692.85307709 638.40245238 -691.49655527 635.05401045 -690.13818359 631.70629883 C-688.82519382 628.46433405 -687.52161879 625.2186989 -686.21875 621.97265625 C-685.81144653 620.97766617 -685.40414307 619.98267609 -684.98449707 618.95753479 C-682.2677102 612.17728541 -681.00130593 606.03003639 -680.68359375 598.72265625 C-680.62075195 597.33530273 -680.62075195 597.33530273 -680.55664062 595.91992188 C-680.51732422 594.97697266 -680.47800781 594.03402344 -680.4375 593.0625 C-680.39431641 592.09248047 -680.35113281 591.12246094 -680.30664062 590.12304688 C-680.20137907 587.74881399 -680.09924293 585.37449079 -680 583 C-681.14082031 582.57460937 -681.14082031 582.57460937 -682.3046875 582.140625 C-686.83397412 580.22388342 -689.98459878 577.387715 -692.875 573.4375 C-694.91139241 567.21518985 -694.95255801 560.75740477 -692.8125 554.5625 C-688.98141617 549.1461401 -684.83036659 545.97018676 -679 543 C-678.34 543 -677.68 543 -677 543 C-677.02863601 542.17186106 -677.05727201 541.34372211 -677.08677578 540.49048805 C-677.84725106 518.00607828 -678.19380972 495.53833626 -678.30332303 473.04202223 C-678.32573482 468.6205778 -678.35284397 464.19916174 -678.37937927 459.77774048 C-678.42858265 451.46676103 -678.47377845 443.15576522 -678.51740164 434.84475482 C-678.5674074 425.35682453 -678.62208302 415.86892276 -678.67708123 406.38102031 C-678.78978518 386.92070589 -678.89623541 367.46036428 -679 348 C-693.85 342.06 -708.7 336.12 -724 330 C-721.26963299 327.26963299 -720.13393414 326.43096995 -716.73428345 325.08753967 C-715.86334045 324.73894897 -714.99239746 324.39035828 -714.09506226 324.03120422 C-712.66476181 323.47253914 -712.66476181 323.47253914 -711.20556641 322.90258789 C-709.69470459 322.30173874 -709.69470459 322.30173874 -708.15332031 321.68875122 C-704.80557161 320.35943405 -701.45358772 319.04114832 -698.1015625 317.72265625 C-695.75364259 316.792363 -693.40602148 315.86131532 -691.0586853 314.92955017 C-685.48210117 312.71776196 -679.90293209 310.51263153 -674.32233655 308.31099361 C-663.8554359 304.18129534 -653.39449179 300.03652949 -642.9335556 295.89175034 C-640.53703806 294.94231136 -638.14039509 293.99318891 -635.74362946 293.04437637 C-622.19034048 287.67806186 -608.66608139 282.26441408 -595.22012329 276.63392639 C-583.05732904 271.56338496 -570.80754164 266.71146056 -558.5625 261.84375 C-557.4125996 261.38658033 -556.2626992 260.92941067 -555.07795334 260.45838737 C-545.50852971 256.65472268 -535.93708645 252.8561497 -526.36560059 249.05767822 C-518.05532529 245.75948616 -509.74578378 242.45945582 -501.4375 239.15625 C-500.28583658 238.69840748 -499.13417316 238.24056496 -497.94761086 237.76884842 C-484.68318631 232.49281077 -471.44924853 227.16203086 -458.27958679 221.65328979 C-446.15365552 216.60443972 -433.94393234 211.76621301 -421.73828125 206.9140625 C-420.59474056 206.45942879 -419.45119987 206.00479507 -418.27300644 205.53638458 C-408.7530089 201.75248991 -399.23101775 197.97362134 -389.70892334 194.19500732 C-381.44693588 190.91622264 -373.18571161 187.63552628 -364.92578125 184.3515625 C-363.77435387 183.89381439 -362.62292648 183.43606628 -361.43660736 182.96444702 C-348.23801284 177.71451656 -335.06026389 172.4227574 -321.94140625 166.9765625 C-307.88022455 161.13919389 -293.7494293 155.48315791 -279.6015625 149.859375 C-278.47140654 149.41009518 -277.34125057 148.96081535 -276.17684746 148.49792099 C-266.82067812 144.77943739 -257.46249415 141.06603385 -248.10412598 137.35308838 C-239.97726594 134.12854545 -231.85121758 130.90196992 -223.7265625 127.671875 C-222.5951672 127.22208157 -221.4637719 126.77228813 -220.29809189 126.30886459 C-200.11543942 118.28034587 -179.99795811 110.09865061 -159.9104538 101.83531761 C-123.02220147 86.67161142 -123.02220147 86.67161142 -115.79174805 89.05957031 C-114.62683838 89.56069336 -113.46192871 90.06181641 -112.26171875 90.578125 C-111.60526367 90.85633591 -110.94880859 91.13454681 -110.27246094 91.42118835 C-108.83522901 92.0314771 -107.40002876 92.64656734 -105.96664429 93.26583862 C-101.95599239 94.9976854 -97.92964406 96.69255257 -93.90625 98.39453125 C-93.03973312 98.76232193 -92.17321625 99.13011261 -91.28044128 99.50904846 C-80.46075537 104.09402876 -69.57228808 108.50993333 -58.6875 112.9375 C-54.48542819 114.64912895 -50.28374082 116.36170078 -46.08203125 118.07421875 C-44.5414782 118.70189651 -44.5414782 118.70189651 -42.96980286 119.34225464 C-33.26554528 123.29692717 -23.56898482 127.27022415 -13.875 131.25 C-12.30322332 131.89510254 -10.73144598 132.54020346 -9.15966797 133.18530273 C-2.72679269 135.82589118 3.70552465 138.46783545 10.13720703 141.11132812 C37.01949043 152.17689251 37.01949043 152.17689251 64 163 C60.43335387 103.43990931 42.74267967 50.52410874 3.40209961 5.04736328 C0 1.10095239 0 1.10095239 0 0 Z M-209 342 C-226.82166559 363.64742564 -236.15667651 391.51216675 -233.69140625 419.50390625 C-230.19692912 449.16057501 -216.56407836 475.32703978 -193.35205078 494.35058594 C-169.81799593 512.83823307 -140.87325144 522.50879777 -110.875 519.3125 C-81.08866926 515.63737697 -53.37128174 500.47058842 -34.53515625 476.91796875 C-24.46534395 463.58421536 -17.10274875 449.2041337 -13 433 C-12.75507812 432.05640625 -12.51015625 431.1128125 -12.2578125 430.140625 C-6.56213853 403.14469083 -13.14071525 374.78373997 -27.98046875 351.9140625 C-46.33436523 325.43049041 -72.6493995 307.6565206 -104.53613281 301.82666016 C-144.66315604 295.57297372 -182.54894444 312.06486629 -209 342 Z " fill="#0266A5" transform="translate(724,123)"/>
<path d="M0 0 C3.62352099 0.57556637 6.88111102 1.1794534 10.2746582 2.58447266 C11.07347916 2.91147659 11.87230011 3.23848053 12.69532776 3.57539368 C13.55512741 3.93465439 14.41492706 4.2939151 15.30078125 4.6640625 C16.22459091 5.04390793 17.14840057 5.42375336 18.10020447 5.81510925 C20.11278936 6.64331548 22.12422555 7.47431733 24.13464355 8.30776978 C29.63794694 10.58890415 35.14981886 12.84920474 40.66015625 15.11328125 C41.82118866 15.591035 42.98222107 16.06878876 44.17843628 16.5610199 C57.50964069 22.0425778 70.87938666 27.42796598 84.25 32.8125 C89.07305611 34.75616453 93.89590191 36.70035062 98.71875 38.64453125 C99.87064316 39.10879517 101.02253632 39.57305908 102.20933533 40.0513916 C112.06092862 44.02267669 121.90726984 48.00680396 131.75 52 C132.48042511 52.29631317 133.21085022 52.59262634 133.96340942 52.8979187 C137.54881526 54.35252513 141.13407351 55.80749484 144.71923828 57.26269531 C152.20784322 60.30214114 159.6977083 63.33848007 167.1875 66.375 C167.9443811 66.68187744 168.70126221 66.98875488 169.4810791 67.30493164 C182.87685098 72.73613093 196.27554329 78.16010109 209.67489624 83.5824585 C221.95169751 88.55062155 234.22678472 93.52298516 246.5 98.5 C259.20330023 103.65109561 271.90756882 108.79979562 284.61352539 113.94433594 C286.42167576 114.67648417 288.2297829 115.40873919 290.0378418 116.14111328 C300.68196869 120.45248075 311.33287407 124.74581269 322 129 C320.53862053 136.13077168 318.53331743 142.97277705 316.31640625 149.90234375 C315.55505766 152.31008112 314.79417485 154.7179658 314.03369141 157.12597656 C313.62757066 158.40857805 313.22142192 159.69117068 312.81524658 160.97375488 C283.51294126 249.34038173 283.51294126 249.34038173 264 340 C263.82106201 341.25039063 263.64212402 342.50078125 263.45776367 343.7890625 C262.01012987 354.53937501 261.6376209 365.16143171 261.6875 376 C261.68965515 376.84994537 261.6918103 377.69989075 261.69403076 378.57559204 C261.82255509 410.33484473 267.4735205 441.02107886 278 471 C278.24717773 471.71510742 278.49435547 472.43021484 278.74902344 473.16699219 C290.6545733 507.34849543 309.93558149 543.72662639 336.2578125 569.18359375 C338 571 338 571 338 573 C294.36514644 559.33043939 251.65758107 523.4953729 225 487 C224.14193848 485.84894983 223.28386549 484.69790823 222.42578125 483.546875 C216.38702811 475.35413506 211.05286837 466.8290998 206 458 C205.34386719 456.87722656 204.68773437 455.75445313 204.01171875 454.59765625 C187.76912774 425.66045503 180.73669537 393.55644144 176 361 C175.83483887 359.90816406 175.66967773 358.81632812 175.49951172 357.69140625 C170.29941927 321.85540206 170.34782766 282.77135805 176 247 C176.25740967 245.29481201 176.25740967 245.29481201 176.52001953 243.55517578 C181.71526779 209.78838348 191.15094267 176.2750235 205 145 C197.52358532 150.21643382 190.60118755 155.71359559 184 162 C183.44296387 162.5244873 182.88592773 163.04897461 182.31201172 163.58935547 C172.40813386 172.9659497 163.94624563 182.92858662 156 194 C155.33774414 194.89525391 155.33774414 194.89525391 154.66210938 195.80859375 C133.82751576 224.03610769 127.3557848 255.27190513 122.42303467 289.11590576 C121.65052364 294.38260083 120.85710427 299.64616661 120.06640625 304.91015625 C118.36220827 316.27117604 116.67614492 327.6348104 115 339 C108.6939186 338.39386615 103.13479946 336.4780093 97.19140625 334.34375 C96.1319278 333.9692421 95.07244934 333.59473419 93.98086548 333.20887756 C90.50582428 331.9788357 87.03415316 330.73956859 83.5625 329.5 C81.15099813 328.6438846 78.73929319 327.78834102 76.32739258 326.93334961 C71.3574645 325.17071178 66.38880258 323.40456401 61.42089844 321.63623047 C54.30974456 319.10705354 47.19100521 316.59982736 40.0703125 314.09765625 C36.81561725 312.95218546 33.56107417 311.80628369 30.30661011 310.66015625 C28.24244228 309.93374819 26.17793279 309.20831019 24.11306763 308.48388672 C21.234281 307.47324418 18.35719479 306.45789673 15.48046875 305.44140625 C14.64834869 305.15048599 13.81622864 304.85956573 12.95889282 304.55982971 C8.97096028 303.14576882 5.07508888 301.6270639 1.21430969 299.89292908 C0.42024373 299.53713744 -0.37382223 299.18134581 -1.1919508 298.81477261 C-1.78860703 298.54589765 -2.38526327 298.27702269 -3 298 C-2.7656351 267.6905749 -2.52819448 237.38117531 -2.28670079 207.07180624 C-2.25792507 203.459899 -2.22917447 199.84799155 -2.20043945 196.23608398 C-2.19472053 195.51728582 -2.18900161 194.79848765 -2.1831094 194.05790772 C-2.09164273 182.55420849 -2.00219213 171.05049448 -1.91354198 159.54677323 C-1.82192703 147.6644192 -1.7280175 135.78208476 -1.63215441 123.89976424 C-1.57863781 117.25875181 -1.52611269 110.61773429 -1.4761219 103.97669411 C-1.21434261 69.31199513 -0.73415959 34.65801274 0 0 Z " fill="#0266A5" transform="translate(233,586)"/>
<path d="M0 0 C0.03098339 27.72916102 0.05109681 55.45832404 0.0625 83.1875 C0.0629343 84.21337204 0.06336861 85.23924407 0.06381607 86.29620314 C0.0864066 141.13703961 0.02752281 195.97388977 -0.5 250.8125 C-0.51793673 252.67868799 -0.51793673 252.67868799 -0.53623581 254.58257675 C-0.67656818 269.05521466 -0.82957227 283.52768526 -1 298 C-5.94562058 300.52623001 -10.86560155 302.84438076 -16.0300293 304.8996582 C-16.68961986 305.16329509 -17.34921041 305.42693197 -18.02878857 305.69855785 C-20.20931988 306.56921193 -22.39176148 307.43496756 -24.57421875 308.30078125 C-26.1426395 308.92605914 -27.71092418 309.55167844 -29.27908325 310.1776123 C-32.6442606 311.5201683 -36.01023882 312.8606882 -39.37686157 314.19961548 C-47.57381983 317.45988525 -55.7662383 320.73153808 -63.95921135 324.00180626 C-66.79077609 325.13192005 -69.62249883 326.26163726 -72.45423889 327.39131165 C-89.49362135 334.19017294 -106.51477114 341.03382802 -123.53012848 347.89255524 C-130.59262491 350.73920248 -137.65573519 353.58432675 -144.71875 356.4296875 C-145.53245182 356.75751095 -146.34615364 357.0853344 -147.18451309 357.42309189 C-170.88218592 366.9700673 -194.58812042 376.49650052 -218.29388046 386.02337265 C-221.74883601 387.41191355 -225.203729 388.80060997 -228.65859985 390.18936157 C-252.60041425 399.8131068 -276.54559583 409.42823956 -300.50556946 419.00669861 C-301.27443954 419.31415921 -302.04330961 419.62161982 -302.83547878 419.93839741 C-304.29699616 420.52226644 -305.75887283 421.10523711 -307.22115421 421.68719006 C-310.20852352 422.87692255 -313.18768614 424.07839788 -316.15493774 425.31784058 C-317.04071503 425.68660309 -317.92649231 426.0553656 -318.83911133 426.43530273 C-319.56358963 426.7437059 -320.28806793 427.05210907 -321.03450012 427.36985779 C-323 428 -323 428 -327 428 C-333.35931188 371.8450049 -323.03515018 320.73141088 -299 270 C-298.4942041 268.93185059 -297.9884082 267.86370117 -297.46728516 266.76318359 C-290.10918301 251.36436896 -281.81297274 236.60787158 -273 222 C-272.43603516 221.05930664 -271.87207031 220.11861328 -271.29101562 219.14941406 C-264.7941919 208.3402387 -258.04480319 197.87520393 -250.39892578 187.84326172 C-248.90608913 185.87626055 -247.43395835 183.8949296 -245.96484375 181.91015625 C-238.04467224 171.22893886 -229.70023718 160.9642871 -221.08569336 150.83740234 C-218.17378256 147.40941167 -215.32225513 143.9401202 -212.5 140.4375 C-208.3754401 135.36680449 -204.00383401 130.56807521 -199.5625 125.77734375 C-196.89638085 122.88769327 -194.30401647 119.94490996 -191.7265625 116.9765625 C-188.20055314 112.93999974 -184.59806393 108.97226258 -181 105 C-180.14277344 104.04867187 -179.28554688 103.09734375 -178.40234375 102.1171875 C-169.45929418 92.23618064 -160.27210205 82.51749755 -150 74 C-149.46455566 73.55076172 -148.92911133 73.10152344 -148.37744141 72.63867188 C-111.29681578 41.59442717 -50.41261662 -0.80736674 0 0 Z " fill="#0266A5" transform="translate(974,585)"/>
<path d="M0 0 C7.48410971 2.0949105 14.67114594 4.71058588 21.890625 7.578125 C23.01555359 8.02117981 24.14048218 8.46423462 25.29949951 8.92071533 C28.32405991 10.11281606 31.34718872 11.30845832 34.36968994 12.50576782 C37.54865939 13.76401315 40.72950472 15.01749866 43.91015625 16.27148438 C50.17051214 18.74047331 56.42892822 21.21433616 62.68676758 23.68969727 C67.18099551 25.46705496 71.67630734 27.24165928 76.171875 29.015625 C80.59190601 30.75997343 85.01185401 32.50452846 89.43115234 34.25073242 C103.23882199 39.70566587 117.05649906 45.13507266 130.875 50.5625 C132.64638336 51.25824631 132.64638336 51.25824631 134.45355225 51.9680481 C142.96886097 55.31247484 151.48440592 58.65629991 160 62 C169.70849108 65.8120984 179.4168754 69.62446837 189.125 73.4375 C190.29640533 73.89757446 191.46781067 74.35764893 192.67471313 74.83166504 C209.00284353 81.24510769 225.32460959 87.67442723 241.63964844 94.12109375 C253.41614388 98.77379857 265.20336349 103.39856356 277 108 C277 108.66 277 109.32 277 110 C254.26792915 120.30937648 231.13801489 129.64897507 208 139 C206.93044067 139.43242004 205.86088135 139.86484009 204.75891113 140.31036377 C170.30890011 154.23173365 135.73399845 167.80321429 101 181 C100.09415161 181.34442139 99.18830322 181.68884277 98.25500488 182.04370117 C60.58079755 196.36216058 22.68495934 210.07465973 -15.39770508 223.26757812 C-16.25512299 223.56479767 -17.11254089 223.86201721 -17.99594116 224.16824341 C-19.5760818 224.71558251 -21.15655627 225.26195938 -22.73745728 225.80709839 C-23.44792206 226.05299713 -24.15838684 226.29889587 -24.89038086 226.55224609 C-25.57139862 226.78659363 -26.25241638 227.02094116 -26.95407104 227.26239014 C-28.36971002 227.7727643 -29.77357224 228.31657778 -31.16629028 228.88653564 C-34.92268701 230.41595088 -37.12414003 231.26778684 -41 230 C-40.6690332 229.48429443 -40.33806641 228.96858887 -39.99707031 228.43725586 C-16.9643848 192.36249051 -0.84557238 154.41003679 6 112 C6.21398437 110.72125 6.42796875 109.4425 6.6484375 108.125 C11.62463593 74.08491797 8.95838985 38.57003658 0.515625 5.29296875 C0 3 0 3 0 0 Z " fill="#0266A5" transform="translate(930,345)"/>
<path d="M0 0 C0.66 0 1.32 0 2 0 C2.30703857 0.64437012 2.61407715 1.28874023 2.93041992 1.95263672 C4.34847441 4.92722238 5.76797951 7.90111367 7.1875 10.875 C7.91163086 12.39480469 7.91163086 12.39480469 8.65039062 13.9453125 C11.39255155 19.68728706 14.1862908 25.39174698 17.1105957 31.04345703 C18 33 18 33 18 35 C19.08087891 35.03867188 19.08087891 35.03867188 20.18359375 35.078125 C32.59302863 35.73360535 44.76302375 37.9259118 57 40 C53.52240444 44.31762286 49.88396147 48.08584711 45.75 51.78515625 C44.34427734 53.07776367 44.34427734 53.07776367 42.91015625 54.39648438 C40.9664428 56.17713462 38.99449905 57.92744002 36.99609375 59.64648438 C31.64302578 64.57516952 31.64302578 64.57516952 29.74951172 71.33398438 C30.26111523 74.98264527 31.07223967 78.43571616 32 82 C32.38112498 84.2746991 32.73857526 86.55351277 33.0703125 88.8359375 C33.42065109 91.01582205 33.77220512 93.19551163 34.125 95.375 C34.30675781 96.50421875 34.48851562 97.6334375 34.67578125 98.796875 C35.11609077 101.53142885 35.55750391 104.26579928 36 107 C31.92260622 105.47288801 28.17362284 103.55497238 24.34375 101.48828125 C23.06157582 100.80593004 21.77901173 100.1243111 20.49609375 99.44335938 C18.49111054 98.37687371 16.48878042 97.30641261 14.49267578 96.22338867 C12.5538956 95.17355325 10.6062548 94.14208198 8.65625 93.11328125 C6.92084961 92.18189331 6.92084961 92.18189331 5.15039062 91.23168945 C1.6821501 89.87573212 0.45245736 89.77449473 -3 91 C-4.77439368 91.80070937 -6.52001163 92.6670679 -8.23828125 93.58203125 C-9.22376953 94.10216797 -10.20925781 94.62230469 -11.22460938 95.15820312 C-12.24361328 95.70412109 -13.26261719 96.25003906 -14.3125 96.8125 C-16.3291175 97.88209431 -18.34603901 98.95111565 -20.36328125 100.01953125 C-21.79921631 100.78257568 -21.79921631 100.78257568 -23.26416016 101.56103516 C-26.81657224 103.42949106 -30.40061298 105.22395838 -34 107 C-33.60627252 97.8458361 -32.0234816 88.99331594 -30.28417969 80.01147461 C-30.10532227 79.04991455 -29.92646484 78.08835449 -29.7421875 77.09765625 C-29.5757373 76.23664307 -29.40928711 75.37562988 -29.23779297 74.48852539 C-28.95788925 71.55930708 -29.01176655 69.79197872 -30 67 C-31.87254419 64.79924403 -33.70938506 62.84754831 -35.78515625 60.859375 C-36.36083847 60.29172424 -36.93652069 59.72407349 -37.52964783 59.13922119 C-39.36470317 57.33310857 -41.2128937 55.54119768 -43.0625 53.75 C-44.91298003 51.94196328 -46.76064307 50.13113194 -48.60606384 48.31793213 C-49.75436915 47.19140838 -50.90612672 46.06839138 -52.0615387 44.94915771 C-53.39274581 43.65136845 -54.69919735 42.3282627 -56 41 C-56 40.67 -56 40.34 -56 40 C-51.57197934 39.28092953 -47.14286952 38.56911209 -42.71264648 37.86376953 C-41.20810105 37.62321017 -39.70386154 37.38072872 -38.19995117 37.13623047 C-36.02862386 36.7835787 -33.8562622 36.43803037 -31.68359375 36.09375 C-31.01976181 35.9843811 -30.35592987 35.87501221 -29.67198181 35.7623291 C-25.4107794 35.0959663 -21.30926203 34.90245021 -17 35 C-16.73646729 34.14768799 -16.47293457 33.29537598 -16.20141602 32.41723633 C-14.96057386 28.88785863 -13.45485942 25.66715092 -11.77734375 22.32421875 C-11.47180069 21.71359085 -11.16625763 21.10296295 -10.85145569 20.47383118 C-10.21040683 19.19473461 -9.56743009 17.91660256 -8.92260742 16.6394043 C-7.9326685 14.67792681 -6.94928399 12.7132658 -5.96679688 10.74804688 C-1.14769955 1.14769955 -1.14769955 1.14769955 0 0 Z " fill="#0266A5" transform="translate(602,0)"/>
</svg>
